<?xml version="1.0" encoding="utf-8"?><svg xmlns="http://www.w3.org/2000/svg" xmlns:xlink="http://www.w3.org/1999/xlink" style="display:none"><symbol viewbox="0 0 1024 1792" id="facebook"><path d="M959 12v264H802q-86 0-116 36t-30 108v189h293l-39 296H656v759H350V905H95V609h255V391q0-186 104-288.5T731 0q147 0 228 12z"/></symbol><symbol viewbox="0 0 1664 1792" id="twitter"><path d="M1620 408q-67 98-162 167 1 14 1 42 0 130-38 259.5T1305.5 1125 1121 1335.5t-258 146-323 54.5q-271 0-496-145 35 4 78 4 225 0 401-138-105-2-188-64.5T221 1033q33 5 61 5 43 0 85-11-112-23-185.5-111.5T108 710v-4q68 38 146 41-66-44-105-115t-39-154q0-88 44-163 121 149 294.5 238.5T820 653q-8-38-8-74 0-134 94.5-228.5T1135 256q140 0 236 102 109-21 205-78-37 115-142 178 93-10 186-50z"/></symbol><symbol viewbox="0 0 1920 1792" id="vkontakte"><path d="M1917 520q23 64-150 294-24 32-65 85-78 100-90 131-17 41 14 81 17 21 81 82h1l1 1 1 1 2 2q141 131 191 221 3 5 6.5 12.5t7 26.5-.5 34-25 27.5-59 12.5l-256 4q-24 5-56-5t-52-22l-20-12q-30-21-70-64t-68.5-77.5-61-58-56.5-15.5q-3 1-8 3.5t-17 14.5-21.5 29.5-17 52-6.5 77.5q0 15-3.5 27.5t-7.5 18.5l-4 5q-18 19-53 22H939q-71 4-146-16.5t-131.5-53-103-66T488 1338l-25-24q-10-10-27.5-30t-71.5-91-106-151-122.5-211T5 559q-6-16-6-27t3-16l4-6q15-19 57-19l274-2q12 2 23 6.5t16 8.5l5 3q16 11 24 32 20 50 46 103.5t41 81.5l16 29q29 60 56 104t48.5 68.5T654 964t34 14 27-5q2-1 5-5t12-22 13.5-47 9.5-81 0-125q-2-40-9-73t-14-46l-6-12q-25-34-85-43-13-2 5-24 17-19 38-30 53-26 239-24 82 1 135 13 20 5 33.5 13.5t20.5 24 10.5 32 3.5 45.5-1 55-2.5 70.5-1.5 82.5q0 11-1 42t-.5 48 3.5 40.5 11.5 39T1157 971q8 2 17 4t26-11 38-34.5 52-67 68-107.5q60-104 107-225 4-10 10-17.5t11-10.5l4-3 5-2.5 13-3 20-.5 288-2q39-5 64 2.5t31 16.5z"/></symbol></svg>